# xmcd CD database file
#
# Track frame offsets:
#	150
#	19117
#	33012
#	51105
#	70435
#	88185
#	101775
#	120825
#	138365
#	158232
#	176767
#
# Disc length: 2538 seconds
#
# Revision: 0
# Processed by: cddbd v1.5.1PL0 Copyright (c) Steve Scherf et al.
# Submitted via: CDex 1.51
#
DISCID=8d09e80b
DTITLE=村田和人 - 太陽の季節
DYEAR=1900
DGENRE=JPop
TTITLE0=134号ストーリー
TTITLE1=SARA!
TTITLE2=Get Around The Night
TTITLE3=風とコロナ
TTITLE4=Promised Girl
TTITLE5=Singapore Sling
TTITLE6=リアルは夏の中
TTITLE7=Marine Blue,Feel So Blue
TTITLE8=夢の遠さ
TTITLE9=Dive Into Summer
TTITLE10=夢の降る浜ベ
EXTD=
EXTT0=
EXTT1=
EXTT2=
EXTT3=
EXTT4=
EXTT5=
EXTT6=
EXTT7=
EXTT8=
EXTT9=
EXTT10=
PLAYORDER=
